<?xml version="1.0" standalone="no"?>
<!DOCTYPE svg PUBLIC "-//W3C//DTD SVG 20010904//EN"
 "http://www.w3.org/TR/2001/REC-SVG-20010904/DTD/svg10.dtd">
<svg version="1.0" xmlns="http://www.w3.org/2000/svg"
 width="300.000000pt" height="300.000000pt" viewBox="0 0 300.000000 300.000000"
 preserveAspectRatio="xMidYMid meet">
<g transform="translate(0.000000,300.000000) scale(0.100000,-0.100000)"
fill="#012661" stroke="none">
<path d="M1285 2969 c-615 -95 -1102 -552 -1237 -1159 -20 -91 -23 -132 -23
-310 0 -162 4 -223 19 -290 66 -305 193 -538 410 -756 218 -217 451 -344 756
-410 122 -27 458 -27 580 0 305 66 538 193 756 410 217 218 344 451 410 756
27 122 27 458 0 580 -66 305 -193 538 -410 756 -214 213 -437 336 -735 406
-99 22 -423 34 -526 17z m462 -428 c102 -29 174 -63 267 -125 93 -63 198 -154
191 -166 -3 -4 -67 -52 -142 -106 -76 -54 -150 -107 -165 -118 l-28 -20 -62
60 c-109 105 -218 151 -333 142 -176 -15 -231 -134 -110 -241 33 -29 238 -175
424 -303 206 -141 289 -209 354 -289 62 -77 94 -146 109 -234 50 -293 -176
-551 -542 -617 -90 -16 -290 -18 -380 -3 -173 28 -337 108 -455 224 -81 79
-153 181 -139 194 5 5 92 49 193 97 l184 88 36 -44 c62 -78 134 -140 200 -173
54 -26 78 -32 155 -35 76 -3 101 0 149 18 74 28 133 83 142 133 20 104 -38
166 -357 382 -487 331 -609 472 -596 694 13 217 205 397 488 457 96 20 323 12
417 -15z"/>
</g>
</svg>
